<?xml version="1.0" standalone="no"?><!DOCTYPE svg PUBLIC "-//W3C//DTD SVG 1.1//EN" "http://www.w3.org/Graphics/SVG/1.1/DTD/svg11.dtd"><svg t="1667976640290" class="icon" viewBox="0 0 1024 1024" version="1.1" xmlns="http://www.w3.org/2000/svg" p-id="1796" xmlns:xlink="http://www.w3.org/1999/xlink" width="200" height="200"><path d="M500.5824 525.2608m-419.4816 0a419.4816 419.4816 0 1 0 838.9632 0 419.4816 419.4816 0 1 0-838.9632 0Z" fill="#4058E2" p-id="1797"></path><path d="M127.8464 516.5568a372.736 364.032 0 1 0 745.472 0 372.736 364.032 0 1 0-745.472 0Z" fill="#5565E9" p-id="1798"></path><path d="M167.168 504.064a333.4144 313.1392 0 1 0 666.8288 0 333.4144 313.1392 0 1 0-666.8288 0Z" fill="#6675FE" p-id="1799"></path><path d="M214.4768 494.6432a286.1056 259.2768 0 1 0 572.2112 0 286.1056 259.2768 0 1 0-572.2112 0Z" fill="#7084FC" p-id="1800"></path><path d="M500.5824 105.7792c-23.3984 0-46.2848 1.9968-68.608 5.6832v430.5408c0 28.672 23.2448 51.8656 51.8656 51.8656h430.5408a421.0176 421.0176 0 0 0 5.6832-68.608c0-231.68-187.8016-419.4816-419.4816-419.4816z" fill="#4058E2" p-id="1801"></path><path d="M956.1088 506.112c-22.8352-230.3488-205.9776-413.5424-436.3264-436.3264-26.112-2.6112-48.64 18.2784-48.64 44.4928v395.776c0 24.6784 20.0192 44.6976 44.6976 44.6976h395.776c26.2144 0 47.0528-22.528 44.4928-48.64z" fill="#EA9D03" p-id="1802"></path><path d="M919.9104 477.1328c-19.4048-195.9424-175.2064-351.744-371.1488-371.1488-22.2208-2.2016-41.3696 15.5648-41.3696 37.888v336.64c0 20.992 16.9984 37.9904 37.9904 37.9904h336.64c22.3232 0 40.0384-19.1488 37.888-41.3696z" fill="#F7BC00" p-id="1803"></path><path d="M882.944 441.4464c-15.9232-157.5936-143.8208-282.9312-304.64-298.5472-18.2272-1.792-33.9456 12.4928-33.9456 30.464v270.7968c0 16.896 13.9776 30.5664 31.1808 30.5664h276.3264c18.3296 0 32.8704-15.4112 31.0784-33.28z" fill="#F7CA44" p-id="1804"></path><path d="M842.4448 409.7024c-12.1344-119.8592-109.4144-215.1936-231.7312-227.072-13.8752-1.3312-25.8048 9.5232-25.8048 23.1936v205.9776c0 12.8512 10.5984 23.2448 23.7056 23.2448h210.176c13.9264-0.0512 25.0368-11.776 23.6544-25.344z" fill="#FFE98A" p-id="1805"></path></svg>